<svg width="17" height="12" viewBox="0 0 17 12" fill="none" xmlns="http://www.w3.org/2000/svg">
<path d="M1 7.33337H2C2.55228 7.33337 3 7.78109 3 8.33337V10.3334C3 10.8857 2.55228 11.3334 2 11.3334H1C0.447715 11.3334 0 10.8857 0 10.3334V8.33337C0 7.78109 0.447715 7.33337 1 7.33337V7.33337Z" fill="white"/>
<path d="M5.66663 5.33337H6.66663C7.21891 5.33337 7.66663 5.78109 7.66663 6.33337V10.3334C7.66663 10.8857 7.21891 11.3334 6.66663 11.3334H5.66663C5.11434 11.3334 4.66663 10.8857 4.66663 10.3334V6.33337C4.66663 5.78109 5.11434 5.33337 5.66663 5.33337Z" fill="white"/>
<path d="M10.3334 3H11.3334C11.8857 3 12.3334 3.44772 12.3334 4V10.3333C12.3334 10.8856 11.8857 11.3333 11.3334 11.3333H10.3334C9.78109 11.3333 9.33337 10.8856 9.33337 10.3333V4C9.33337 3.44772 9.78109 3 10.3334 3Z" fill="white"/>
<path opacity="0.18" d="M15 0.666626H16C16.5523 0.666626 17 1.11434 17 1.66663V10.3333C17 10.8856 16.5523 11.3333 16 11.3333H15C14.4477 11.3333 14 10.8856 14 10.3333V1.66663C14 1.11434 14.4477 0.666626 15 0.666626V0.666626Z" fill="white"/>
</svg>
