<svg width="16" height="16" viewBox="0 0 16 16" fill="none" xmlns="http://www.w3.org/2000/svg">
<path fill-rule="evenodd" clip-rule="evenodd" d="M0.5 8.20001C0.5 12.3421 3.85786 15.7 8 15.7C12.1421 15.7 15.5 12.3421 15.5 8.20001C15.5 4.05787 12.1421 0.700012 8 0.700012C3.85786 0.700012 0.5 4.05787 0.5 8.20001ZM14.6 8.20001C14.6 11.8451 11.6451 14.8 7.99996 14.8C4.35488 14.8 1.39996 11.8451 1.39996 8.20001C1.39996 4.55494 4.35488 1.60002 7.99996 1.60002C11.6451 1.60002 14.6 4.55494 14.6 8.20001ZM6.64476 6.48025H5.75C5.80755 5.35001 6.56105 4.45001 8.03142 4.45001C9.35 4.45001 10.25 5.26629 10.25 6.3442C10.25 7.16571 9.82617 7.74652 9.15642 8.14943C8.49185 8.54186 8.30345 8.83489 8.30345 9.38434V9.72446H7.38779V9.24304C7.38255 8.55236 7.71744 8.08141 8.43432 7.65234C9.0413 7.28083 9.27672 6.95117 9.27672 6.39129C9.27672 5.74246 8.77445 5.26629 7.99476 5.26629C7.20465 5.26629 6.70233 5.73199 6.64476 6.48025ZM7.84825 12.1105C8.1884 12.1105 8.44475 11.8488 8.44475 11.514C8.44475 11.1738 8.1884 10.9175 7.84825 10.9175C7.51337 10.9175 7.25174 11.1738 7.25174 11.514C7.25174 11.8488 7.51337 12.1105 7.84825 12.1105Z" fill="#7D90A9"/>
</svg>
