<svg width="12" height="10" viewBox="0 0 12 10" fill="none" xmlns="http://www.w3.org/2000/svg">
<path fill-rule="evenodd" clip-rule="evenodd" d="M3.22015 2.59996H11.5334V3.59996H1.1993C1.01521 3.59996 0.865967 3.45072 0.865967 3.26663C0.865967 3.1706 0.907377 3.07924 0.979591 3.01595L4.26809 0.133695C4.37884 0.0366209 4.54732 0.0477126 4.64439 0.158469C4.72457 0.249952 4.73268 0.384103 4.6641 0.484576L3.22015 2.59996ZM9.17917 6.59995H0.865967V5.59995H10.1993H11.2C11.3841 5.59995 11.5334 5.74919 11.5334 5.93329C11.5334 6.02931 11.492 6.12067 11.4198 6.18397L8.13123 9.06623C8.0205 9.1633 7.85203 9.15223 7.75497 9.04143C7.67477 8.94997 7.66663 8.81583 7.73523 8.71537L9.17917 6.59995Z" fill="#7D90A9"/>
</svg>
