<svg width="14" height="13" viewBox="0 0 14 13" fill="none" xmlns="http://www.w3.org/2000/svg">
<path fill-rule="evenodd" clip-rule="evenodd" d="M5.04896 11.4319C5.72381 11.6274 6.44734 11.7334 7.19999 11.7334C10.8819 11.7334 13.8667 9.19629 13.8667 6.06669C13.8667 2.93708 10.8819 0.400024 7.19999 0.400024C3.51809 0.400024 0.533325 2.93708 0.533325 6.06669C0.533325 7.75762 1.40466 9.27556 2.7865 10.3138L2.5851 12.0464C2.56384 12.2293 2.69485 12.3948 2.87771 12.416C2.94025 12.4233 3.00356 12.4127 3.06033 12.3855L5.04896 11.4319ZM5.27149 10.6635L4.9783 10.5786L3.47746 11.2982L3.63417 9.95009L3.26706 9.67429C2.03795 8.75076 1.33333 7.45062 1.33333 6.06669C1.33333 3.41034 3.93371 1.20002 7.19999 1.20002C10.4663 1.20002 13.0667 3.41034 13.0667 6.06669C13.0667 8.72302 10.4663 10.9334 7.19999 10.9334C6.53481 10.9334 5.88569 10.8414 5.27149 10.6635Z" fill="#7D90A9"/>
</svg>
