<svg width="16" height="12" viewBox="0 0 16 12" fill="none" xmlns="http://www.w3.org/2000/svg">
<path d="M4.125 10.6901V9.0553H0V7.83655C0.65625 6.63733 1.83008 4.77014 3.52148 2.23499H5.39062V7.88342H6.55664V9.0553H5.39062V10.6901H4.125ZM1.25977 7.83069V7.91272H4.14258V3.38928H4.06641C3.07422 4.82678 2.13867 6.30725 1.25977 7.83069Z" fill="white"/>
<path d="M15.3956 7.34436C15.3956 8.42639 15.0636 9.28967 14.3995 9.9342C13.7394 10.5748 12.8546 10.8951 11.7452 10.8951C10.546 10.8951 9.59484 10.4967 8.89172 9.69983C8.18859 8.90295 7.83703 7.82288 7.83703 6.45959C7.83703 5.11194 8.19055 4.03772 8.89758 3.23694C9.60461 2.43225 10.5499 2.02991 11.7335 2.02991C12.6945 2.02991 13.4991 2.28381 14.1476 2.79163C14.796 3.29553 15.1925 3.97522 15.337 4.83069H14.0187C13.8546 4.31897 13.5773 3.92834 13.1866 3.65881C12.796 3.38928 12.3116 3.25452 11.7335 3.25452C10.9523 3.25452 10.3312 3.54358 9.87023 4.1217C9.4093 4.69592 9.17883 5.47131 9.17883 6.44788C9.17883 7.44397 9.4093 8.23108 9.87023 8.8092C10.3351 9.38342 10.9659 9.67053 11.7628 9.67053C12.4542 9.67053 13.0167 9.47717 13.4503 9.09045C13.8839 8.70374 14.1027 8.19788 14.1066 7.57288V7.39124H11.9269V6.28967H15.3956V7.34436Z" fill="white"/>
</svg>
