<svg width="16" height="12" viewBox="0 0 16 12" fill="none" xmlns="http://www.w3.org/2000/svg">
<path opacity="0.3" d="M7.66707 2.61517C9.8918 2.61526 12.0315 3.46937 13.6438 5.00097C13.7652 5.11921 13.9593 5.11772 14.0789 4.99762L15.2395 3.82729C15.3 3.76638 15.3338 3.68387 15.3333 3.59802C15.3328 3.51217 15.2981 3.43006 15.2368 3.36986C11.0049 -0.682369 4.32857 -0.682369 0.0966565 3.36986C0.0353544 3.43002 0.000572274 3.5121 6.99859e-06 3.59795C-0.000558277 3.6838 0.0331399 3.76634 0.0936446 3.82729L1.25459 4.99762C1.37409 5.1179 1.56831 5.11939 1.68965 5.00097C3.30221 3.46927 5.44212 2.61516 7.66707 2.61517V2.61517Z" fill="white"/>
<path d="M7.66711 6.42271C8.88946 6.42263 10.0682 6.87658 10.9743 7.69636C11.0968 7.8127 11.2899 7.81018 11.4093 7.69067L12.5686 6.52034C12.6296 6.45896 12.6635 6.37568 12.6626 6.28914C12.6618 6.20261 12.6262 6.12004 12.5639 6.0599C9.80474 3.49549 5.53183 3.49549 2.77267 6.0599C2.71034 6.12004 2.67478 6.20265 2.67396 6.28921C2.67315 6.37578 2.70714 6.45905 2.76832 6.52034L3.92725 7.69067C4.04672 7.81018 4.23977 7.8127 4.36232 7.69636C5.26779 6.87713 6.44558 6.42321 7.66711 6.42271V6.42271Z" fill="white"/>
<path d="M9.89492 9.21582C9.95692 9.15502 9.99106 9.07136 9.98929 8.98458C9.98751 8.8978 9.94998 8.8156 9.88555 8.75738C8.60489 7.67511 6.72924 7.67511 5.44858 8.75738C5.38411 8.81555 5.34651 8.89773 5.34468 8.98451C5.34284 9.07128 5.37692 9.15498 5.43888 9.21582L7.44451 11.2378C7.5033 11.2972 7.58344 11.3307 7.66707 11.3307C7.75069 11.3307 7.83083 11.2972 7.88962 11.2378L9.89492 9.21582Z" fill="white"/>
</svg>
